<mxfile host="app.diagrams.net" modified="2020-09-20T04:16:27.127Z" agent="5.0 (Windows)" etag="txzdcAq5p8AH9haEMwXe" version="13.7.3" type="github">
  <diagram id="G9ClYqDsk0nMHyHUow-L" name="Page-1">
    <mxGraphModel dx="868" dy="428" grid="1" gridSize="10" guides="1" tooltips="1" connect="1" arrows="1" fold="1" page="1" pageScale="1" pageWidth="827" pageHeight="1169" math="0" shadow="0">
      <root>
        <mxCell id="0" />
        <mxCell id="1" parent="0" />
        <mxCell id="xWz8oCQroHI2pErNYsCc-118" value="" style="edgeStyle=orthogonalEdgeStyle;curved=0;rounded=1;sketch=0;orthogonalLoop=1;jettySize=auto;html=1;" edge="1" parent="1">
          <mxGeometry relative="1" as="geometry">
            <mxPoint x="280" y="420" as="sourcePoint" />
            <mxPoint x="320" y="420" as="targetPoint" />
          </mxGeometry>
        </mxCell>
        <mxCell id="xWz8oCQroHI2pErNYsCc-103" value="1" style="text;html=1;align=center;verticalAlign=middle;resizable=0;points=[];autosize=1;" vertex="1" parent="1">
          <mxGeometry x="210" y="410" width="20" height="20" as="geometry" />
        </mxCell>
        <mxCell id="xWz8oCQroHI2pErNYsCc-105" value="2" style="text;html=1;align=center;verticalAlign=middle;resizable=0;points=[];autosize=1;" vertex="1" parent="1">
          <mxGeometry x="210" y="450" width="20" height="20" as="geometry" />
        </mxCell>
        <mxCell id="xWz8oCQroHI2pErNYsCc-106" value="3" style="text;html=1;align=center;verticalAlign=middle;resizable=0;points=[];autosize=1;" vertex="1" parent="1">
          <mxGeometry x="210" y="490" width="20" height="20" as="geometry" />
        </mxCell>
        <mxCell id="xWz8oCQroHI2pErNYsCc-107" value="0" style="text;html=1;align=center;verticalAlign=middle;resizable=0;points=[];autosize=1;" vertex="1" parent="1">
          <mxGeometry x="210" y="370" width="20" height="20" as="geometry" />
        </mxCell>
        <mxCell id="xWz8oCQroHI2pErNYsCc-108" value="4" style="text;html=1;align=center;verticalAlign=middle;resizable=0;points=[];autosize=1;" vertex="1" parent="1">
          <mxGeometry x="210" y="530" width="20" height="20" as="geometry" />
        </mxCell>
        <mxCell id="xWz8oCQroHI2pErNYsCc-109" value="5" style="text;html=1;align=center;verticalAlign=middle;resizable=0;points=[];autosize=1;" vertex="1" parent="1">
          <mxGeometry x="210" y="570" width="20" height="20" as="geometry" />
        </mxCell>
        <mxCell id="xWz8oCQroHI2pErNYsCc-110" value="6" style="text;html=1;align=center;verticalAlign=middle;resizable=0;points=[];autosize=1;" vertex="1" parent="1">
          <mxGeometry x="210" y="610" width="20" height="20" as="geometry" />
        </mxCell>
        <mxCell id="xWz8oCQroHI2pErNYsCc-111" value="7" style="text;html=1;align=center;verticalAlign=middle;resizable=0;points=[];autosize=1;" vertex="1" parent="1">
          <mxGeometry x="210" y="650" width="20" height="20" as="geometry" />
        </mxCell>
        <mxCell id="xWz8oCQroHI2pErNYsCc-112" value="8" style="text;html=1;align=center;verticalAlign=middle;resizable=0;points=[];autosize=1;" vertex="1" parent="1">
          <mxGeometry x="210" y="690" width="20" height="20" as="geometry" />
        </mxCell>
        <mxCell id="xWz8oCQroHI2pErNYsCc-133" style="edgeStyle=orthogonalEdgeStyle;curved=0;rounded=1;sketch=0;orthogonalLoop=1;jettySize=auto;html=1;exitX=0.5;exitY=1;exitDx=0;exitDy=0;" edge="1" parent="1">
          <mxGeometry relative="1" as="geometry">
            <mxPoint x="360" y="435" as="sourcePoint" />
            <mxPoint x="360" y="435" as="targetPoint" />
          </mxGeometry>
        </mxCell>
        <mxCell id="xWz8oCQroHI2pErNYsCc-137" style="edgeStyle=orthogonalEdgeStyle;curved=0;rounded=1;sketch=0;orthogonalLoop=1;jettySize=auto;html=1;exitX=0.5;exitY=1;exitDx=0;exitDy=0;" edge="1" parent="1">
          <mxGeometry relative="1" as="geometry">
            <mxPoint x="360" y="473.75" as="sourcePoint" />
            <mxPoint x="360" y="473.75" as="targetPoint" />
          </mxGeometry>
        </mxCell>
        <mxCell id="xWz8oCQroHI2pErNYsCc-229" value="28" style="swimlane;fontStyle=0;childLayout=stackLayout;horizontal=1;startSize=40;fillColor=#ffffff;horizontalStack=0;resizeParent=1;resizeParentMax=0;resizeLast=0;collapsible=0;marginBottom=0;swimlaneFillColor=#ffffff;rounded=0;sketch=0;direction=south;" vertex="1" parent="1">
          <mxGeometry x="320" y="407.5" width="60" height="27.5" as="geometry" />
        </mxCell>
        <mxCell id="xWz8oCQroHI2pErNYsCc-291" style="edgeStyle=orthogonalEdgeStyle;curved=0;rounded=1;sketch=0;orthogonalLoop=1;jettySize=auto;html=1;entryX=0.5;entryY=0;entryDx=0;entryDy=0;" edge="1" parent="1" source="xWz8oCQroHI2pErNYsCc-231" target="xWz8oCQroHI2pErNYsCc-234">
          <mxGeometry relative="1" as="geometry" />
        </mxCell>
        <mxCell id="xWz8oCQroHI2pErNYsCc-231" value="19" style="swimlane;fontStyle=0;childLayout=stackLayout;horizontal=1;startSize=40;fillColor=#ffffff;horizontalStack=0;resizeParent=1;resizeParentMax=0;resizeLast=0;collapsible=0;marginBottom=0;swimlaneFillColor=#ffffff;rounded=0;sketch=0;direction=north;" vertex="1" parent="1">
          <mxGeometry x="414" y="407.5" width="60" height="27.5" as="geometry" />
        </mxCell>
        <mxCell id="xWz8oCQroHI2pErNYsCc-234" value="10" style="swimlane;fontStyle=0;childLayout=stackLayout;horizontal=1;startSize=40;fillColor=#ffffff;horizontalStack=0;resizeParent=1;resizeParentMax=0;resizeLast=0;collapsible=0;marginBottom=0;swimlaneFillColor=#ffffff;rounded=0;sketch=0;direction=north;" vertex="1" parent="1">
          <mxGeometry x="510" y="407.5" width="60" height="27.5" as="geometry" />
        </mxCell>
        <mxCell id="xWz8oCQroHI2pErNYsCc-238" value="20" style="swimlane;fontStyle=0;childLayout=stackLayout;horizontal=1;startSize=40;fillColor=#ffffff;horizontalStack=0;resizeParent=1;resizeParentMax=0;resizeLast=0;collapsible=0;marginBottom=0;swimlaneFillColor=#ffffff;rounded=0;sketch=0;direction=north;" vertex="1" parent="1">
          <mxGeometry x="320" y="446.25" width="60" height="27.5" as="geometry" />
        </mxCell>
        <mxCell id="xWz8oCQroHI2pErNYsCc-242" value="12" style="swimlane;fontStyle=0;childLayout=stackLayout;horizontal=1;startSize=40;fillColor=#ffffff;horizontalStack=0;resizeParent=1;resizeParentMax=0;resizeLast=0;collapsible=0;marginBottom=0;swimlaneFillColor=#ffffff;rounded=0;sketch=0;direction=north;" vertex="1" parent="1">
          <mxGeometry x="320" y="486.25" width="60" height="27.5" as="geometry" />
        </mxCell>
        <mxCell id="xWz8oCQroHI2pErNYsCc-246" value="5" style="swimlane;fontStyle=0;childLayout=stackLayout;horizontal=1;startSize=40;fillColor=#ffffff;horizontalStack=0;resizeParent=1;resizeParentMax=0;resizeLast=0;collapsible=0;marginBottom=0;swimlaneFillColor=#ffffff;rounded=0;sketch=0;direction=north;" vertex="1" parent="1">
          <mxGeometry x="320" y="565" width="60" height="27.5" as="geometry" />
        </mxCell>
        <mxCell id="xWz8oCQroHI2pErNYsCc-296" style="edgeStyle=orthogonalEdgeStyle;curved=0;rounded=1;sketch=0;orthogonalLoop=1;jettySize=auto;html=1;entryX=0.5;entryY=0;entryDx=0;entryDy=0;" edge="1" parent="1" source="xWz8oCQroHI2pErNYsCc-247" target="xWz8oCQroHI2pErNYsCc-248">
          <mxGeometry relative="1" as="geometry" />
        </mxCell>
        <mxCell id="xWz8oCQroHI2pErNYsCc-247" value="15" style="swimlane;fontStyle=0;childLayout=stackLayout;horizontal=1;startSize=40;fillColor=#ffffff;horizontalStack=0;resizeParent=1;resizeParentMax=0;resizeLast=0;collapsible=0;marginBottom=0;swimlaneFillColor=#ffffff;rounded=0;sketch=0;direction=north;" vertex="1" parent="1">
          <mxGeometry x="320" y="605" width="60" height="27.5" as="geometry" />
        </mxCell>
        <mxCell id="xWz8oCQroHI2pErNYsCc-248" value="33" style="swimlane;fontStyle=0;childLayout=stackLayout;horizontal=1;startSize=40;fillColor=#ffffff;horizontalStack=0;resizeParent=1;resizeParentMax=0;resizeLast=0;collapsible=0;marginBottom=0;swimlaneFillColor=#ffffff;rounded=0;sketch=0;direction=north;" vertex="1" parent="1">
          <mxGeometry x="414" y="605" width="60" height="27.5" as="geometry" />
        </mxCell>
        <mxCell id="xWz8oCQroHI2pErNYsCc-173" value="0" style="text;html=1;align=center;verticalAlign=middle;resizable=0;points=[];autosize=1;" vertex="1" parent="1">
          <mxGeometry x="210" y="770" width="20" height="20" as="geometry" />
        </mxCell>
        <mxCell id="xWz8oCQroHI2pErNYsCc-174" value="1" style="text;html=1;align=center;verticalAlign=middle;resizable=0;points=[];autosize=1;" vertex="1" parent="1">
          <mxGeometry x="210" y="810" width="20" height="20" as="geometry" />
        </mxCell>
        <mxCell id="xWz8oCQroHI2pErNYsCc-175" value="2" style="text;html=1;align=center;verticalAlign=middle;resizable=0;points=[];autosize=1;" vertex="1" parent="1">
          <mxGeometry x="210" y="850" width="20" height="20" as="geometry" />
        </mxCell>
        <mxCell id="xWz8oCQroHI2pErNYsCc-176" value="3" style="text;html=1;align=center;verticalAlign=middle;resizable=0;points=[];autosize=1;" vertex="1" parent="1">
          <mxGeometry x="210" y="890" width="20" height="20" as="geometry" />
        </mxCell>
        <mxCell id="xWz8oCQroHI2pErNYsCc-177" value="4" style="text;html=1;align=center;verticalAlign=middle;resizable=0;points=[];autosize=1;" vertex="1" parent="1">
          <mxGeometry x="210" y="930" width="20" height="20" as="geometry" />
        </mxCell>
        <mxCell id="xWz8oCQroHI2pErNYsCc-178" value="5" style="text;html=1;align=center;verticalAlign=middle;resizable=0;points=[];autosize=1;" vertex="1" parent="1">
          <mxGeometry x="210" y="970" width="20" height="20" as="geometry" />
        </mxCell>
        <mxCell id="xWz8oCQroHI2pErNYsCc-180" value="6" style="text;html=1;align=center;verticalAlign=middle;resizable=0;points=[];autosize=1;" vertex="1" parent="1">
          <mxGeometry x="210" y="1010" width="20" height="20" as="geometry" />
        </mxCell>
        <mxCell id="xWz8oCQroHI2pErNYsCc-181" value="7" style="text;html=1;align=center;verticalAlign=middle;resizable=0;points=[];autosize=1;" vertex="1" parent="1">
          <mxGeometry x="210" y="1050" width="20" height="20" as="geometry" />
        </mxCell>
        <mxCell id="xWz8oCQroHI2pErNYsCc-182" value="8" style="text;html=1;align=center;verticalAlign=middle;resizable=0;points=[];autosize=1;" vertex="1" parent="1">
          <mxGeometry x="210" y="1090" width="20" height="20" as="geometry" />
        </mxCell>
        <mxCell id="xWz8oCQroHI2pErNYsCc-212" value="" style="edgeStyle=orthogonalEdgeStyle;curved=0;rounded=1;sketch=0;orthogonalLoop=1;jettySize=auto;html=1;" edge="1" parent="1" source="xWz8oCQroHI2pErNYsCc-213" target="xWz8oCQroHI2pErNYsCc-215">
          <mxGeometry relative="1" as="geometry" />
        </mxCell>
        <mxCell id="xWz8oCQroHI2pErNYsCc-213" value="null" style="rounded=0;whiteSpace=wrap;html=1;sketch=0;" vertex="1" parent="1">
          <mxGeometry x="240" y="360" width="40" height="40" as="geometry" />
        </mxCell>
        <mxCell id="xWz8oCQroHI2pErNYsCc-214" value="" style="edgeStyle=orthogonalEdgeStyle;curved=0;rounded=1;sketch=0;orthogonalLoop=1;jettySize=auto;html=1;" edge="1" parent="1" source="xWz8oCQroHI2pErNYsCc-215" target="xWz8oCQroHI2pErNYsCc-217">
          <mxGeometry relative="1" as="geometry" />
        </mxCell>
        <mxCell id="xWz8oCQroHI2pErNYsCc-215" value="" style="rounded=0;whiteSpace=wrap;html=1;sketch=0;" vertex="1" parent="1">
          <mxGeometry x="240" y="400" width="40" height="40" as="geometry" />
        </mxCell>
        <mxCell id="xWz8oCQroHI2pErNYsCc-216" value="" style="edgeStyle=orthogonalEdgeStyle;curved=0;rounded=1;sketch=0;orthogonalLoop=1;jettySize=auto;html=1;" edge="1" parent="1" source="xWz8oCQroHI2pErNYsCc-217" target="xWz8oCQroHI2pErNYsCc-219">
          <mxGeometry relative="1" as="geometry" />
        </mxCell>
        <mxCell id="xWz8oCQroHI2pErNYsCc-289" style="edgeStyle=orthogonalEdgeStyle;curved=0;rounded=1;sketch=0;orthogonalLoop=1;jettySize=auto;html=1;entryX=0.5;entryY=0;entryDx=0;entryDy=0;" edge="1" parent="1" source="xWz8oCQroHI2pErNYsCc-217" target="xWz8oCQroHI2pErNYsCc-238">
          <mxGeometry relative="1" as="geometry" />
        </mxCell>
        <mxCell id="xWz8oCQroHI2pErNYsCc-217" value="" style="rounded=0;whiteSpace=wrap;html=1;sketch=0;" vertex="1" parent="1">
          <mxGeometry x="240" y="440" width="40" height="40" as="geometry" />
        </mxCell>
        <mxCell id="xWz8oCQroHI2pErNYsCc-218" value="" style="edgeStyle=orthogonalEdgeStyle;curved=0;rounded=1;sketch=0;orthogonalLoop=1;jettySize=auto;html=1;" edge="1" parent="1" source="xWz8oCQroHI2pErNYsCc-219" target="xWz8oCQroHI2pErNYsCc-221">
          <mxGeometry relative="1" as="geometry" />
        </mxCell>
        <mxCell id="xWz8oCQroHI2pErNYsCc-292" style="edgeStyle=orthogonalEdgeStyle;curved=0;rounded=1;sketch=0;orthogonalLoop=1;jettySize=auto;html=1;entryX=0.5;entryY=0;entryDx=0;entryDy=0;" edge="1" parent="1" source="xWz8oCQroHI2pErNYsCc-219" target="xWz8oCQroHI2pErNYsCc-242">
          <mxGeometry relative="1" as="geometry" />
        </mxCell>
        <mxCell id="xWz8oCQroHI2pErNYsCc-219" value="" style="rounded=0;whiteSpace=wrap;html=1;sketch=0;" vertex="1" parent="1">
          <mxGeometry x="240" y="480" width="40" height="40" as="geometry" />
        </mxCell>
        <mxCell id="xWz8oCQroHI2pErNYsCc-220" value="" style="edgeStyle=orthogonalEdgeStyle;curved=0;rounded=1;sketch=0;orthogonalLoop=1;jettySize=auto;html=1;" edge="1" parent="1" source="xWz8oCQroHI2pErNYsCc-221" target="xWz8oCQroHI2pErNYsCc-223">
          <mxGeometry relative="1" as="geometry" />
        </mxCell>
        <mxCell id="xWz8oCQroHI2pErNYsCc-221" value="null" style="rounded=0;whiteSpace=wrap;html=1;sketch=0;" vertex="1" parent="1">
          <mxGeometry x="240" y="520" width="40" height="40" as="geometry" />
        </mxCell>
        <mxCell id="xWz8oCQroHI2pErNYsCc-222" value="" style="edgeStyle=orthogonalEdgeStyle;curved=0;rounded=1;sketch=0;orthogonalLoop=1;jettySize=auto;html=1;" edge="1" parent="1" source="xWz8oCQroHI2pErNYsCc-223" target="xWz8oCQroHI2pErNYsCc-225">
          <mxGeometry relative="1" as="geometry" />
        </mxCell>
        <mxCell id="xWz8oCQroHI2pErNYsCc-293" style="edgeStyle=orthogonalEdgeStyle;curved=0;rounded=1;sketch=0;orthogonalLoop=1;jettySize=auto;html=1;entryX=0.5;entryY=0;entryDx=0;entryDy=0;" edge="1" parent="1" source="xWz8oCQroHI2pErNYsCc-223" target="xWz8oCQroHI2pErNYsCc-246">
          <mxGeometry relative="1" as="geometry" />
        </mxCell>
        <mxCell id="xWz8oCQroHI2pErNYsCc-223" value="" style="rounded=0;whiteSpace=wrap;html=1;sketch=0;" vertex="1" parent="1">
          <mxGeometry x="240" y="558.75" width="40" height="40" as="geometry" />
        </mxCell>
        <mxCell id="xWz8oCQroHI2pErNYsCc-224" value="" style="edgeStyle=orthogonalEdgeStyle;curved=0;rounded=1;sketch=0;orthogonalLoop=1;jettySize=auto;html=1;" edge="1" parent="1" source="xWz8oCQroHI2pErNYsCc-225" target="xWz8oCQroHI2pErNYsCc-227">
          <mxGeometry relative="1" as="geometry" />
        </mxCell>
        <mxCell id="xWz8oCQroHI2pErNYsCc-294" style="edgeStyle=orthogonalEdgeStyle;curved=0;rounded=1;sketch=0;orthogonalLoop=1;jettySize=auto;html=1;entryX=0.5;entryY=0;entryDx=0;entryDy=0;" edge="1" parent="1" source="xWz8oCQroHI2pErNYsCc-225" target="xWz8oCQroHI2pErNYsCc-247">
          <mxGeometry relative="1" as="geometry" />
        </mxCell>
        <mxCell id="xWz8oCQroHI2pErNYsCc-225" value="" style="rounded=0;whiteSpace=wrap;html=1;sketch=0;" vertex="1" parent="1">
          <mxGeometry x="240" y="597.5" width="40" height="42.5" as="geometry" />
        </mxCell>
        <mxCell id="xWz8oCQroHI2pErNYsCc-226" value="" style="edgeStyle=orthogonalEdgeStyle;curved=0;rounded=1;sketch=0;orthogonalLoop=1;jettySize=auto;html=1;" edge="1" parent="1" source="xWz8oCQroHI2pErNYsCc-227" target="xWz8oCQroHI2pErNYsCc-228">
          <mxGeometry relative="1" as="geometry" />
        </mxCell>
        <mxCell id="xWz8oCQroHI2pErNYsCc-227" value="null" style="rounded=0;whiteSpace=wrap;html=1;sketch=0;" vertex="1" parent="1">
          <mxGeometry x="240" y="640" width="40" height="40" as="geometry" />
        </mxCell>
        <mxCell id="xWz8oCQroHI2pErNYsCc-295" style="edgeStyle=orthogonalEdgeStyle;curved=0;rounded=1;sketch=0;orthogonalLoop=1;jettySize=auto;html=1;entryX=0.5;entryY=0;entryDx=0;entryDy=0;" edge="1" parent="1" source="xWz8oCQroHI2pErNYsCc-228" target="xWz8oCQroHI2pErNYsCc-250">
          <mxGeometry relative="1" as="geometry" />
        </mxCell>
        <mxCell id="xWz8oCQroHI2pErNYsCc-228" value="" style="rounded=0;whiteSpace=wrap;html=1;sketch=0;" vertex="1" parent="1">
          <mxGeometry x="240" y="677.5" width="40" height="42.5" as="geometry" />
        </mxCell>
        <mxCell id="xWz8oCQroHI2pErNYsCc-290" style="edgeStyle=orthogonalEdgeStyle;curved=0;rounded=1;sketch=0;orthogonalLoop=1;jettySize=auto;html=1;entryX=0.5;entryY=0;entryDx=0;entryDy=0;" edge="1" parent="1" source="xWz8oCQroHI2pErNYsCc-236" target="xWz8oCQroHI2pErNYsCc-231">
          <mxGeometry relative="1" as="geometry" />
        </mxCell>
        <mxCell id="xWz8oCQroHI2pErNYsCc-236" value="28" style="swimlane;fontStyle=0;childLayout=stackLayout;horizontal=1;startSize=40;fillColor=#ffffff;horizontalStack=0;resizeParent=1;resizeParentMax=0;resizeLast=0;collapsible=0;marginBottom=0;swimlaneFillColor=#ffffff;rounded=0;sketch=0;direction=north;" vertex="1" parent="1">
          <mxGeometry x="320" y="407.5" width="60" height="27.5" as="geometry" />
        </mxCell>
        <mxCell id="xWz8oCQroHI2pErNYsCc-250" value="17" style="swimlane;fontStyle=0;childLayout=stackLayout;horizontal=1;startSize=40;fillColor=#ffffff;horizontalStack=0;resizeParent=1;resizeParentMax=0;resizeLast=0;collapsible=0;marginBottom=0;swimlaneFillColor=#ffffff;rounded=0;sketch=0;direction=north;" vertex="1" parent="1">
          <mxGeometry x="320" y="685" width="60" height="27.5" as="geometry" />
        </mxCell>
        <mxCell id="xWz8oCQroHI2pErNYsCc-263" value="" style="edgeStyle=orthogonalEdgeStyle;curved=0;rounded=1;sketch=0;orthogonalLoop=1;jettySize=auto;html=1;" edge="1" parent="1" source="xWz8oCQroHI2pErNYsCc-264" target="xWz8oCQroHI2pErNYsCc-266">
          <mxGeometry relative="1" as="geometry" />
        </mxCell>
        <mxCell id="xWz8oCQroHI2pErNYsCc-305" style="edgeStyle=orthogonalEdgeStyle;curved=0;rounded=1;sketch=0;orthogonalLoop=1;jettySize=auto;html=1;entryX=0.5;entryY=0;entryDx=0;entryDy=0;" edge="1" parent="1" source="xWz8oCQroHI2pErNYsCc-264" target="xWz8oCQroHI2pErNYsCc-280">
          <mxGeometry relative="1" as="geometry" />
        </mxCell>
        <mxCell id="xWz8oCQroHI2pErNYsCc-264" value="" style="rounded=0;whiteSpace=wrap;html=1;sketch=0;" vertex="1" parent="1">
          <mxGeometry x="240" y="760" width="40" height="40" as="geometry" />
        </mxCell>
        <mxCell id="xWz8oCQroHI2pErNYsCc-265" value="" style="edgeStyle=orthogonalEdgeStyle;curved=0;rounded=1;sketch=0;orthogonalLoop=1;jettySize=auto;html=1;" edge="1" parent="1" source="xWz8oCQroHI2pErNYsCc-266" target="xWz8oCQroHI2pErNYsCc-268">
          <mxGeometry relative="1" as="geometry" />
        </mxCell>
        <mxCell id="xWz8oCQroHI2pErNYsCc-306" style="edgeStyle=orthogonalEdgeStyle;curved=0;rounded=1;sketch=0;orthogonalLoop=1;jettySize=auto;html=1;entryX=0.5;entryY=0;entryDx=0;entryDy=0;" edge="1" parent="1" source="xWz8oCQroHI2pErNYsCc-266" target="xWz8oCQroHI2pErNYsCc-281">
          <mxGeometry relative="1" as="geometry" />
        </mxCell>
        <mxCell id="xWz8oCQroHI2pErNYsCc-266" value="" style="rounded=0;whiteSpace=wrap;html=1;sketch=0;" vertex="1" parent="1">
          <mxGeometry x="240" y="800" width="40" height="40" as="geometry" />
        </mxCell>
        <mxCell id="xWz8oCQroHI2pErNYsCc-267" value="" style="edgeStyle=orthogonalEdgeStyle;curved=0;rounded=1;sketch=0;orthogonalLoop=1;jettySize=auto;html=1;" edge="1" parent="1" source="xWz8oCQroHI2pErNYsCc-268" target="xWz8oCQroHI2pErNYsCc-270">
          <mxGeometry relative="1" as="geometry" />
        </mxCell>
        <mxCell id="xWz8oCQroHI2pErNYsCc-307" style="edgeStyle=orthogonalEdgeStyle;curved=0;rounded=1;sketch=0;orthogonalLoop=1;jettySize=auto;html=1;entryX=0.5;entryY=0;entryDx=0;entryDy=0;" edge="1" parent="1" source="xWz8oCQroHI2pErNYsCc-268" target="xWz8oCQroHI2pErNYsCc-282">
          <mxGeometry relative="1" as="geometry" />
        </mxCell>
        <mxCell id="xWz8oCQroHI2pErNYsCc-268" value="" style="rounded=0;whiteSpace=wrap;html=1;sketch=0;" vertex="1" parent="1">
          <mxGeometry x="240" y="840" width="40" height="40" as="geometry" />
        </mxCell>
        <mxCell id="xWz8oCQroHI2pErNYsCc-269" value="" style="edgeStyle=orthogonalEdgeStyle;curved=0;rounded=1;sketch=0;orthogonalLoop=1;jettySize=auto;html=1;" edge="1" parent="1" source="xWz8oCQroHI2pErNYsCc-270" target="xWz8oCQroHI2pErNYsCc-272">
          <mxGeometry relative="1" as="geometry" />
        </mxCell>
        <mxCell id="xWz8oCQroHI2pErNYsCc-308" style="edgeStyle=orthogonalEdgeStyle;curved=0;rounded=1;sketch=0;orthogonalLoop=1;jettySize=auto;html=1;entryX=0.5;entryY=0;entryDx=0;entryDy=0;" edge="1" parent="1" source="xWz8oCQroHI2pErNYsCc-270" target="xWz8oCQroHI2pErNYsCc-283">
          <mxGeometry relative="1" as="geometry" />
        </mxCell>
        <mxCell id="xWz8oCQroHI2pErNYsCc-270" value="" style="rounded=0;whiteSpace=wrap;html=1;sketch=0;" vertex="1" parent="1">
          <mxGeometry x="240" y="880" width="40" height="40" as="geometry" />
        </mxCell>
        <mxCell id="xWz8oCQroHI2pErNYsCc-271" value="" style="edgeStyle=orthogonalEdgeStyle;curved=0;rounded=1;sketch=0;orthogonalLoop=1;jettySize=auto;html=1;" edge="1" parent="1" source="xWz8oCQroHI2pErNYsCc-272" target="xWz8oCQroHI2pErNYsCc-274">
          <mxGeometry relative="1" as="geometry" />
        </mxCell>
        <mxCell id="xWz8oCQroHI2pErNYsCc-309" style="edgeStyle=orthogonalEdgeStyle;curved=0;rounded=1;sketch=0;orthogonalLoop=1;jettySize=auto;html=1;entryX=0.5;entryY=0;entryDx=0;entryDy=0;" edge="1" parent="1" source="xWz8oCQroHI2pErNYsCc-272" target="xWz8oCQroHI2pErNYsCc-284">
          <mxGeometry relative="1" as="geometry" />
        </mxCell>
        <mxCell id="xWz8oCQroHI2pErNYsCc-272" value="" style="rounded=0;whiteSpace=wrap;html=1;sketch=0;" vertex="1" parent="1">
          <mxGeometry x="240" y="920" width="40" height="40" as="geometry" />
        </mxCell>
        <mxCell id="xWz8oCQroHI2pErNYsCc-273" value="" style="edgeStyle=orthogonalEdgeStyle;curved=0;rounded=1;sketch=0;orthogonalLoop=1;jettySize=auto;html=1;" edge="1" parent="1" source="xWz8oCQroHI2pErNYsCc-274" target="xWz8oCQroHI2pErNYsCc-276">
          <mxGeometry relative="1" as="geometry" />
        </mxCell>
        <mxCell id="xWz8oCQroHI2pErNYsCc-310" style="edgeStyle=orthogonalEdgeStyle;curved=0;rounded=1;sketch=0;orthogonalLoop=1;jettySize=auto;html=1;entryX=0.5;entryY=0;entryDx=0;entryDy=0;" edge="1" parent="1" source="xWz8oCQroHI2pErNYsCc-274" target="xWz8oCQroHI2pErNYsCc-285">
          <mxGeometry relative="1" as="geometry" />
        </mxCell>
        <mxCell id="xWz8oCQroHI2pErNYsCc-274" value="" style="rounded=0;whiteSpace=wrap;html=1;sketch=0;" vertex="1" parent="1">
          <mxGeometry x="240" y="960" width="40" height="40" as="geometry" />
        </mxCell>
        <mxCell id="xWz8oCQroHI2pErNYsCc-275" value="" style="edgeStyle=orthogonalEdgeStyle;curved=0;rounded=1;sketch=0;orthogonalLoop=1;jettySize=auto;html=1;" edge="1" parent="1" source="xWz8oCQroHI2pErNYsCc-276" target="xWz8oCQroHI2pErNYsCc-278">
          <mxGeometry relative="1" as="geometry" />
        </mxCell>
        <mxCell id="xWz8oCQroHI2pErNYsCc-311" style="edgeStyle=orthogonalEdgeStyle;curved=0;rounded=1;sketch=0;orthogonalLoop=1;jettySize=auto;html=1;entryX=0.5;entryY=0;entryDx=0;entryDy=0;" edge="1" parent="1" source="xWz8oCQroHI2pErNYsCc-276" target="xWz8oCQroHI2pErNYsCc-286">
          <mxGeometry relative="1" as="geometry" />
        </mxCell>
        <mxCell id="xWz8oCQroHI2pErNYsCc-276" value="" style="rounded=0;whiteSpace=wrap;html=1;sketch=0;" vertex="1" parent="1">
          <mxGeometry x="240" y="1000" width="40" height="40" as="geometry" />
        </mxCell>
        <mxCell id="xWz8oCQroHI2pErNYsCc-277" value="" style="edgeStyle=orthogonalEdgeStyle;curved=0;rounded=1;sketch=0;orthogonalLoop=1;jettySize=auto;html=1;" edge="1" parent="1" source="xWz8oCQroHI2pErNYsCc-278" target="xWz8oCQroHI2pErNYsCc-279">
          <mxGeometry relative="1" as="geometry" />
        </mxCell>
        <mxCell id="xWz8oCQroHI2pErNYsCc-312" style="edgeStyle=orthogonalEdgeStyle;curved=0;rounded=1;sketch=0;orthogonalLoop=1;jettySize=auto;html=1;entryX=0.5;entryY=0;entryDx=0;entryDy=0;" edge="1" parent="1" source="xWz8oCQroHI2pErNYsCc-278" target="xWz8oCQroHI2pErNYsCc-287">
          <mxGeometry relative="1" as="geometry" />
        </mxCell>
        <mxCell id="xWz8oCQroHI2pErNYsCc-278" value="" style="rounded=0;whiteSpace=wrap;html=1;sketch=0;" vertex="1" parent="1">
          <mxGeometry x="240" y="1040" width="40" height="40" as="geometry" />
        </mxCell>
        <mxCell id="xWz8oCQroHI2pErNYsCc-313" style="edgeStyle=orthogonalEdgeStyle;curved=0;rounded=1;sketch=0;orthogonalLoop=1;jettySize=auto;html=1;entryX=0.5;entryY=0;entryDx=0;entryDy=0;" edge="1" parent="1" source="xWz8oCQroHI2pErNYsCc-279" target="xWz8oCQroHI2pErNYsCc-288">
          <mxGeometry relative="1" as="geometry" />
        </mxCell>
        <mxCell id="xWz8oCQroHI2pErNYsCc-279" value="" style="rounded=0;whiteSpace=wrap;html=1;sketch=0;" vertex="1" parent="1">
          <mxGeometry x="240" y="1080" width="40" height="40" as="geometry" />
        </mxCell>
        <mxCell id="xWz8oCQroHI2pErNYsCc-280" value="10" style="swimlane;fontStyle=0;childLayout=stackLayout;horizontal=1;startSize=40;fillColor=#ffffff;horizontalStack=0;resizeParent=1;resizeParentMax=0;resizeLast=0;collapsible=0;marginBottom=0;swimlaneFillColor=#ffffff;rounded=0;sketch=0;direction=north;" vertex="1" parent="1">
          <mxGeometry x="320" y="766.25" width="60" height="27.5" as="geometry" />
        </mxCell>
        <mxCell id="xWz8oCQroHI2pErNYsCc-281" value="28" style="swimlane;fontStyle=0;childLayout=stackLayout;horizontal=1;startSize=40;fillColor=#f9f7ed;horizontalStack=0;resizeParent=1;resizeParentMax=0;resizeLast=0;collapsible=0;marginBottom=0;swimlaneFillColor=#ffffff;rounded=0;sketch=0;direction=north;strokeColor=#36393d;" vertex="1" parent="1">
          <mxGeometry x="320" y="806.25" width="60" height="27.5" as="geometry" />
        </mxCell>
        <mxCell id="xWz8oCQroHI2pErNYsCc-282" value="19" style="swimlane;fontStyle=0;childLayout=stackLayout;horizontal=1;startSize=40;fillColor=#f9f7ed;horizontalStack=0;resizeParent=1;resizeParentMax=0;resizeLast=0;collapsible=0;marginBottom=0;swimlaneFillColor=#ffffff;rounded=0;sketch=0;direction=north;strokeColor=#36393d;" vertex="1" parent="1">
          <mxGeometry x="320" y="846.25" width="60" height="27.5" as="geometry" />
        </mxCell>
        <mxCell id="xWz8oCQroHI2pErNYsCc-283" value="20" style="swimlane;fontStyle=0;childLayout=stackLayout;horizontal=1;startSize=40;fillColor=#f9f7ed;horizontalStack=0;resizeParent=1;resizeParentMax=0;resizeLast=0;collapsible=0;marginBottom=0;swimlaneFillColor=#ffffff;rounded=0;sketch=0;direction=north;strokeColor=#36393d;" vertex="1" parent="1">
          <mxGeometry x="320" y="886.25" width="60" height="27.5" as="geometry" />
        </mxCell>
        <mxCell id="xWz8oCQroHI2pErNYsCc-284" value="12" style="swimlane;fontStyle=0;childLayout=stackLayout;horizontal=1;startSize=40;fillColor=#ffffff;horizontalStack=0;resizeParent=1;resizeParentMax=0;resizeLast=0;collapsible=0;marginBottom=0;swimlaneFillColor=#ffffff;rounded=0;sketch=0;direction=north;" vertex="1" parent="1">
          <mxGeometry x="320" y="926.25" width="60" height="27.5" as="geometry" />
        </mxCell>
        <mxCell id="xWz8oCQroHI2pErNYsCc-285" value="5" style="swimlane;fontStyle=0;childLayout=stackLayout;horizontal=1;startSize=40;fillColor=#ffffff;horizontalStack=0;resizeParent=1;resizeParentMax=0;resizeLast=0;collapsible=0;marginBottom=0;swimlaneFillColor=#ffffff;rounded=0;sketch=0;direction=north;" vertex="1" parent="1">
          <mxGeometry x="320" y="966.25" width="60" height="27.5" as="geometry" />
        </mxCell>
        <mxCell id="xWz8oCQroHI2pErNYsCc-286" value="15" style="swimlane;fontStyle=0;childLayout=stackLayout;horizontal=1;startSize=40;fillColor=#f9f7ed;horizontalStack=0;resizeParent=1;resizeParentMax=0;resizeLast=0;collapsible=0;marginBottom=0;swimlaneFillColor=#ffffff;rounded=0;sketch=0;direction=north;strokeColor=#36393d;" vertex="1" parent="1">
          <mxGeometry x="320" y="1006.25" width="60" height="27.5" as="geometry" />
        </mxCell>
        <mxCell id="xWz8oCQroHI2pErNYsCc-288" value="17" style="swimlane;fontStyle=0;childLayout=stackLayout;horizontal=1;startSize=40;fillColor=#ffffff;horizontalStack=0;resizeParent=1;resizeParentMax=0;resizeLast=0;collapsible=0;marginBottom=0;swimlaneFillColor=#ffffff;rounded=0;sketch=0;direction=north;" vertex="1" parent="1">
          <mxGeometry x="320" y="1086.25" width="60" height="27.5" as="geometry" />
        </mxCell>
        <mxCell id="xWz8oCQroHI2pErNYsCc-287" value="33" style="swimlane;fontStyle=0;childLayout=stackLayout;horizontal=1;startSize=40;fillColor=#ffffff;horizontalStack=0;resizeParent=1;resizeParentMax=0;resizeLast=0;collapsible=0;marginBottom=0;swimlaneFillColor=#ffffff;rounded=0;sketch=0;direction=north;" vertex="1" parent="1">
          <mxGeometry x="320" y="1046.25" width="60" height="27.5" as="geometry" />
        </mxCell>
        <mxCell id="xWz8oCQroHI2pErNYsCc-316" value="." style="text;html=1;align=center;verticalAlign=middle;resizable=0;points=[];autosize=1;" vertex="1" parent="1">
          <mxGeometry x="250" y="290" width="20" height="20" as="geometry" />
        </mxCell>
      </root>
    </mxGraphModel>
  </diagram>
</mxfile>
